<?xml version="1.0" standalone="no"?>
<!DOCTYPE svg PUBLIC "-//W3C//DTD SVG 20010904//EN"
 "http://www.w3.org/TR/2001/REC-SVG-20010904/DTD/svg10.dtd">
<svg version="1.0" xmlns="http://www.w3.org/2000/svg"
 width="500.000000pt" height="500.000000pt" viewBox="0 0 500.000000 500.000000"
 preserveAspectRatio="xMidYMid meet">

<g transform="translate(0.000000,500.000000) scale(0.100000,-0.100000)"
fill="#000000" stroke="none">
<path d="M0 2500 l0 -2500 2500 0 2500 0 0 2500 0 2500 -2500 0 -2500 0 0
-2500z m3030 80 l0 -260 -50 0 -50 0 0 260 0 260 50 0 50 0 0 -260z m-1233 91
c83 -38 104 -151 41 -218 -21 -23 -22 -25 -5 -34 44 -25 61 -121 32 -183 -9
-18 -33 -42 -54 -54 -34 -20 -54 -22 -175 -22 l-136 0 0 265 0 265 128 0 c103
0 135 -4 169 -19z m301 -88 c26 -56 50 -99 53 -95 3 4 25 51 50 105 l44 97 52
0 c33 0 53 -4 53 -12 0 -6 -34 -76 -75 -155 l-75 -143 0 -110 0 -110 -55 0
-55 0 0 112 0 113 -75 146 c-41 81 -75 150 -75 153 0 4 25 6 55 4 l56 -3 47
-102z m629 88 c85 -39 105 -150 40 -219 -20 -22 -21 -24 -4 -33 45 -26 61
-121 31 -185 -29 -60 -71 -74 -229 -74 l-135 0 0 265 0 265 128 0 c103 0 135
-4 169 -19z m773 -31 l0 -50 -70 0 -70 0 0 -215 0 -215 -50 0 -50 0 0 215 0
214 -67 3 -68 3 -3 48 -3 47 190 0 191 0 0 -50z"/>
<path d="M1600 2535 l0 -55 69 0 c74 0 101 14 101 51 0 49 -16 59 -95 59 l-75
0 0 -55z"/>
<path d="M1602 2318 l3 -63 61 -3 c49 -2 65 1 87 18 32 26 35 62 7 90 -16 16
-33 20 -90 20 l-71 0 3 -62z"/>
<path d="M2530 2535 l0 -55 69 0 c74 0 101 14 101 51 0 49 -16 59 -95 59 l-75
0 0 -55z"/>
<path d="M2532 2318 l3 -63 49 -3 c84 -5 126 16 126 64 0 45 -32 64 -110 64
l-71 0 3 -62z"/>
</g>
</svg>
