<?xml version="1.0" encoding="UTF-8"?>
<svg version="1.1" xmlns="http://www.w3.org/2000/svg" width="64" height="64">
<path d="M0 0 C6.15921849 3.87332297 10.6079573 10.33168441 12.89453125 17.19140625 C13.75842528 26.62342965 12.17174172 33.04150408 7.14453125 40.94140625 C1.26107799 46.82485951 -4.60941403 49.31322923 -12.85546875 49.44140625 C-19.52145865 49.37645142 -23.96783376 48.05904612 -29.73046875 44.62890625 C-35.49552781 38.71213511 -39.16179779 31.84477314 -39.41796875 23.56640625 C-39.30840891 16.12729309 -36.96718212 9.82357153 -31.91796875 4.31640625 C-22.84765197 -3.81228866 -10.96507288 -5.67022688 0 0 Z " fill="#FD8C04" transform="translate(45.10546875,8.80859375)"/>
<path d="M0 0 C1.32 0 2.64 0 4 0 C3.67 1.65 3.34 3.3 3 5 C3.99 5 4.98 5 6 5 C6 4.01 6 3.02 6 2 C7.32 2 8.64 2 10 2 C10 3.65 10 5.3 10 7 C11.32 7.66 12.64 8.32 14 9 C13.67 10.32 13.34 11.64 13 13 C6.125 11.125 6.125 11.125 5 10 C2.66702567 9.95907063 0.33294775 9.95758277 -2 10 C-1.8674201 11.9108203 -1.8674201 11.9108203 -1 14 C1.19630457 15.68482909 1.19630457 15.68482909 3.875 17.0625 C9.79352814 20.3151022 9.79352814 20.3151022 12 23 C12.4375 25.4375 12.4375 25.4375 12 28 C10.375 30.3125 10.375 30.3125 8 32 C4.75 32.25 4.75 32.25 2 32 C1.67 33.32 1.34 34.64 1 36 C0.01 36 -0.98 36 -2 36 C-2 34.35 -2 32.7 -2 31 C-2.66 31 -3.32 31 -4 31 C-4.33 32.32 -4.66 33.64 -5 35 C-5.99 35 -6.98 35 -8 35 C-8 33.02 -8 31.04 -8 29 C-10.475 28.01 -10.475 28.01 -13 27 C-13 25.68 -13 24.36 -13 23 C-8.39726027 23.76712329 -8.39726027 23.76712329 -6.1875 25.0625 C-2.79714167 26.51551071 0.33354409 26.1222152 4 26 C3.82629339 24.0692866 3.82629339 24.0692866 3 22 C1.0639528 20.57395217 1.0639528 20.57395217 -1.3125 19.5 C-7.74159496 16.14212874 -7.74159496 16.14212874 -10 13 C-10.48669885 10.14933533 -10.44180259 8.72767486 -8.9375 6.25 C-6.10246091 4.42094252 -3.31199025 4.31245191 0 4 C0 2.68 0 1.36 0 0 Z " fill="#FBF5E9" transform="translate(31,13)"/>
<path d="M0 0 C1.32 0 2.64 0 4 0 C3.67 1.65 3.34 3.3 3 5 C3.99 5 4.98 5 6 5 C6.33 4.01 6.66 3.02 7 2 C7 3.32 7 4.64 7 6 C4.625 6.125 4.625 6.125 2 6 C1.34 5.34 0.68 4.68 0 4 C0 2.68 0 1.36 0 0 Z " fill="#F8E4C4" transform="translate(31,13)"/>
<path d="M0 0 C2.31 0.33 4.62 0.66 7 1 C6.67 1.99 6.34 2.98 6 4 C6 3.34 6 2.68 6 2 C4.68 2 3.36 2 2 2 C2 2.99 2 3.98 2 5 C1.01 5 0.02 5 -1 5 C-0.67 3.35 -0.34 1.7 0 0 Z " fill="#F79B29" transform="translate(35,13)"/>
</svg>
