<?xml version="1.0" encoding="UTF-8"?>
<!DOCTYPE svg PUBLIC "-//W3C//DTD SVG 1.1//EN" "http://www.w3.org/Graphics/SVG/1.1/DTD/svg11.dtd">
<svg xmlns="http://www.w3.org/2000/svg" version="1.1" width="64px" height="64px" style="shape-rendering:geometricPrecision; text-rendering:geometricPrecision; image-rendering:optimizeQuality; fill-rule:evenodd; clip-rule:evenodd" xmlns:xlink="http://www.w3.org/1999/xlink">
<g><path style="opacity:0.004" fill="#3b2347" d="M 30.5,-0.5 C 30.8333,-0.5 31.1667,-0.5 31.5,-0.5C 31.3147,0.170143 30.9813,0.170143 30.5,-0.5 Z"/></g>
<g><path style="opacity:0.998" fill="#2172f3" d="M 33.5,5.5 C 33.427,7.02694 34.0937,8.02694 35.5,8.5C 35.3284,9.49162 35.6618,10.1583 36.5,10.5C 36.5741,13.6587 37.9074,15.9921 40.5,17.5C 40.427,19.0269 41.0937,20.0269 42.5,20.5C 42.3284,21.4916 42.6618,22.1583 43.5,22.5C 43.8333,22.5 44.1667,22.5 44.5,22.5C 44.5,22.8333 44.5,23.1667 44.5,23.5C 44.5,23.8333 44.5,24.1667 44.5,24.5C 41.7598,26.5595 38.7598,28.2262 35.5,29.5C 35.5,29.1667 35.5,28.8333 35.5,28.5C 36.3382,28.1583 36.6716,27.4916 36.5,26.5C 36.5,25.8333 36.1667,25.5 35.5,25.5C 35.5,24.8333 35.1667,24.5 34.5,24.5C 34.5,24.1667 34.5,23.8333 34.5,23.5C 34.5,22.8333 34.1667,22.5 33.5,22.5C 33.5,22.1667 33.5,21.8333 33.5,21.5C 33.5,20.8333 33.1667,20.5 32.5,20.5C 32.5,19.8333 32.1667,19.5 31.5,19.5C 31.5,19.1667 31.5,18.8333 31.5,18.5C 31.3342,13.8215 31.5008,9.1548 32,4.5C 32.3826,5.05596 32.8826,5.38929 33.5,5.5 Z"/></g>
<g><path style="opacity:0.604" fill="#2f4b82" d="M 33.5,5.5 C 33.8333,5.5 34.1667,5.5 34.5,5.5C 34.8333,6.83333 35.1667,6.83333 35.5,5.5C 37.2503,6.65938 38.2503,8.32604 38.5,10.5C 38.1667,10.5 37.8333,10.5 37.5,10.5C 37.1667,9.16667 36.8333,9.16667 36.5,10.5C 35.6618,10.1583 35.3284,9.49162 35.5,8.5C 34.0937,8.02694 33.427,7.02694 33.5,5.5 Z"/></g>
<g><path style="opacity:0.999" fill="#51aee2" d="M 35.5,5.5 C 35.1667,5.5 34.8333,5.5 34.5,5.5C 34.1667,4.16667 33.8333,4.16667 33.5,5.5C 32.8826,5.38929 32.3826,5.05596 32,4.5C 31.5008,9.1548 31.3342,13.8215 31.5,18.5C 30.1667,18.8333 30.1667,19.1667 31.5,19.5C 32.1667,19.5 32.5,19.8333 32.5,20.5C 33.1667,20.5 33.5,20.8333 33.5,21.5C 32.1667,21.8333 32.1667,22.1667 33.5,22.5C 33.5,22.8333 33.5,23.1667 33.5,23.5C 33.1667,23.5 32.8333,23.5 32.5,23.5C 31.8333,23.5 31.1667,23.5 30.5,23.5C 29.8333,23.5 29.5,23.8333 29.5,24.5C 28.5084,24.3284 27.8417,24.6618 27.5,25.5C 26.1667,25.8333 26.1667,26.1667 27.5,26.5C 27.5,27.1667 27.8333,27.5 28.5,27.5C 28.5,28.1667 28.1667,28.5 27.5,28.5C 26.0755,26.9689 25.4088,27.3023 25.5,29.5C 22.6202,29.0598 19.9535,28.0598 17.5,26.5C 17.5,26.1667 17.5,25.8333 17.5,25.5C 17.1583,24.6618 16.4916,24.3284 15.5,24.5C 19.4403,17.3866 23.607,10.3866 28,3.5C 28.3333,3.83333 28.6667,4.16667 29,4.5C 31.7883,0.48216 33.955,0.815493 35.5,5.5 Z"/></g>
<g><path style="opacity:0.004" fill="#3b2347" d="M 59.5,13.5 C 59.8966,12.475 60.5632,12.3083 61.5,13C 60.9056,13.4643 60.2389,13.631 59.5,13.5 Z"/></g>
<g><path style="opacity:0.998" fill="#3569bc" d="M 36.5,10.5 C 36.8333,10.5 37.1667,10.5 37.5,10.5C 37.8333,11.8333 38.1667,11.8333 38.5,10.5C 40.588,12.3356 41.9213,14.6689 42.5,17.5C 42.1667,17.5 41.8333,17.5 41.5,17.5C 41.1667,16.1667 40.8333,16.1667 40.5,17.5C 37.9074,15.9921 36.5741,13.6587 36.5,10.5 Z"/></g>
<g><path style="opacity:0.012" fill="#3a639a" d="M 40.5,17.5 C 40.8333,17.5 41.1667,17.5 41.5,17.5C 41.8333,18.8333 42.1667,18.8333 42.5,17.5C 43.9549,19.1343 45.6216,20.4676 47.5,21.5C 46.5084,21.3284 45.8417,21.6618 45.5,22.5C 45.1667,22.5 44.8333,22.5 44.5,22.5C 44.1667,21.1667 43.8333,21.1667 43.5,22.5C 42.6618,22.1583 42.3284,21.4916 42.5,20.5C 41.0937,20.0269 40.427,19.0269 40.5,17.5 Z"/></g>
<g><path style="opacity:1" fill="#7a398f" d="M 52.5,19.5 C 54.5529,19.4021 56.2196,20.0687 57.5,21.5C 56.3172,22.5045 54.9839,23.3378 53.5,24C 55.9818,25.4606 55.9818,26.9606 53.5,28.5C 51.9923,26.8292 51.6589,24.9959 52.5,23C 51.7562,21.9614 50.7562,21.4614 49.5,21.5C 49.9731,20.0937 50.9731,19.427 52.5,19.5 Z"/></g>
<g><path style="opacity:0.988" fill="#434b59" d="M -0.5,18.5 C 2.68198,19.5945 5.68198,20.9278 8.5,22.5C 6.51595,22.484 5.51595,23.484 5.5,25.5C 5.94242,26.7387 6.60908,27.7387 7.5,28.5C 4.83333,28.1667 2.16667,27.8333 -0.5,27.5C -0.5,24.5 -0.5,21.5 -0.5,18.5 Z"/></g>
<g><path style="opacity:1" fill="#392952" d="M 63.5,15.5 C 63.5,15.8333 63.5,16.1667 63.5,16.5C 62.1667,16.8333 62.1667,17.1667 63.5,17.5C 63.5,18.5 63.5,19.5 63.5,20.5C 60.8333,20.8333 60.8333,21.1667 63.5,21.5C 63.5,21.8333 63.5,22.1667 63.5,22.5C 62.1667,23.1667 62.1667,23.8333 63.5,24.5C 63.5,25.1667 63.5,25.8333 63.5,26.5C 62.1667,26.8333 62.1667,27.1667 63.5,27.5C 63.5,29.1667 63.5,30.8333 63.5,32.5C 62.8333,32.5 62.1667,32.5 61.5,32.5C 63.1567,29.1466 62.1567,27.1466 58.5,26.5C 58.634,24.7085 58.3007,23.0418 57.5,21.5C 56.2196,20.0687 54.5529,19.4021 52.5,19.5C 54.7686,18.0242 57.1019,16.5242 59.5,15C 60.9285,14.4209 62.2618,14.5876 63.5,15.5 Z"/></g>
<g><path style="opacity:0.996" fill="#8e959d" d="M 8.5,22.5 C 10.8333,23.1667 13.1667,23.8333 15.5,24.5C 15.8417,25.3382 16.5084,25.6716 17.5,25.5C 17.5,25.8333 17.5,26.1667 17.5,26.5C 16.3263,27.5137 15.6596,28.847 15.5,30.5C 14.8333,30.5 14.1667,30.5 13.5,30.5C 12.8333,30.5 12.1667,30.5 11.5,30.5C 10.1667,29.8333 8.83333,29.1667 7.5,28.5C 6.60908,27.7387 5.94242,26.7387 5.5,25.5C 5.51595,23.484 6.51595,22.484 8.5,22.5 Z"/></g>
<g><path style="opacity:0.992" fill="#78e3d7" d="M 30.5,23.5 C 31.1667,23.5 31.8333,23.5 32.5,23.5C 32.8333,24.8333 33.1667,24.8333 33.5,23.5C 33.8333,23.5 34.1667,23.5 34.5,23.5C 34.5,23.8333 34.5,24.1667 34.5,24.5C 35.1667,24.5 35.5,24.8333 35.5,25.5C 36.1667,25.5 36.5,25.8333 36.5,26.5C 34.8946,27.0059 34.5613,27.6726 35.5,28.5C 35.5,28.8333 35.5,29.1667 35.5,29.5C 34.1667,30.5 32.8333,31.5 31.5,32.5C 29.7697,31.9744 28.4363,30.9744 27.5,29.5C 27.5,29.1667 27.5,28.8333 27.5,28.5C 28.1667,28.5 28.5,28.1667 28.5,27.5C 27.8333,27.5 27.5,27.1667 27.5,26.5C 27.5,26.1667 27.5,25.8333 27.5,25.5C 28.4916,25.6716 29.1583,25.3382 29.5,24.5C 30.1667,24.5 30.5,24.1667 30.5,23.5 Z"/></g>
<g><path style="opacity:1" fill="#883eb5" d="M 47.5,21.5 C 48.1667,21.5 48.8333,21.5 49.5,21.5C 50.7562,21.4614 51.7562,21.9614 52.5,23C 51.6589,24.9959 51.9923,26.8292 53.5,28.5C 55.2252,28.8425 55.7252,29.8425 55,31.5C 53.9887,32.3366 52.8221,32.67 51.5,32.5C 51.5,31.5 51.5,30.5 51.5,29.5C 50.1667,29.5 48.8333,29.5 47.5,29.5C 46.8201,27.6099 46.6534,25.6099 47,23.5C 46.3292,24.2524 45.4959,24.5858 44.5,24.5C 44.5,24.1667 44.5,23.8333 44.5,23.5C 45.1667,23.5 45.5,23.1667 45.5,22.5C 46.4916,22.6716 47.1583,22.3382 47.5,21.5 Z"/></g>
<g><path style="opacity:0.997" fill="#e5f4f7" d="M 17.5,26.5 C 19.9535,28.0598 22.6202,29.0598 25.5,29.5C 26.1667,29.5 26.8333,29.5 27.5,29.5C 28.4363,30.9744 29.7697,31.9744 31.5,32.5C 31.5,32.8333 31.5,33.1667 31.5,33.5C 31.5,33.8333 31.5,34.1667 31.5,34.5C 29.1256,33.3139 26.7922,33.3139 24.5,34.5C 24.5,33.8333 24.1667,33.5 23.5,33.5C 23.5,32.8333 23.1667,32.5 22.5,32.5C 20.4006,31.3882 18.0673,30.7215 15.5,30.5C 15.6596,28.847 16.3263,27.5137 17.5,26.5 Z"/></g>
<g><path style="opacity:1" fill="#bb55ec" d="M 47.5,29.5 C 42.5634,30.2612 37.8967,31.5946 33.5,33.5C 32.8333,33.5 32.1667,33.5 31.5,33.5C 31.5,33.1667 31.5,32.8333 31.5,32.5C 32.8333,31.5 34.1667,30.5 35.5,29.5C 38.7598,28.2262 41.7598,26.5595 44.5,24.5C 45.4959,24.5858 46.3292,24.2524 47,23.5C 46.6534,25.6099 46.8201,27.6099 47.5,29.5 Z"/></g>
<g><path style="opacity:1" fill="#382670" d="M 57.5,21.5 C 58.3007,23.0418 58.634,24.7085 58.5,26.5C 62.1567,27.1466 63.1567,29.1466 61.5,32.5C 57.6403,32.8084 53.9736,33.4751 50.5,34.5C 49.6618,34.1583 49.3284,33.4916 49.5,32.5C 50.1667,32.5 50.8333,32.5 51.5,32.5C 52.8221,32.67 53.9887,32.3366 55,31.5C 55.7252,29.8425 55.2252,28.8425 53.5,28.5C 55.9818,26.9606 55.9818,25.4606 53.5,24C 54.9839,23.3378 56.3172,22.5045 57.5,21.5 Z"/></g>
<g><path style="opacity:1" fill="#9466f5" d="M 47.5,29.5 C 48.8333,29.5 50.1667,29.5 51.5,29.5C 51.5,30.5 51.5,31.5 51.5,32.5C 50.8333,32.5 50.1667,32.5 49.5,32.5C 46.9455,33.388 44.2788,33.7214 41.5,33.5C 38.8333,33.5 36.1667,33.5 33.5,33.5C 37.8967,31.5946 42.5634,30.2612 47.5,29.5 Z"/></g>
<g><path style="opacity:0.999" fill="#51b6ec" d="M 11.5,30.5 C 12.1667,31.8333 12.8333,31.8333 13.5,30.5C 14.1667,30.5 14.8333,30.5 15.5,30.5C 18.0673,30.7215 20.4006,31.3882 22.5,32.5C 23.1667,32.5 23.5,32.8333 23.5,33.5C 24.1667,33.5 24.5,33.8333 24.5,34.5C 24.5,35.1667 24.1667,35.5 23.5,35.5C 22.1667,35.8333 22.1667,36.1667 23.5,36.5C 23.5,37.1667 23.1667,37.5 22.5,37.5C 21.1667,37.8333 21.1667,38.1667 22.5,38.5C 22.5,38.8333 22.5,39.1667 22.5,39.5C 22.3166,40.8817 25.3166,41.215 31.5,40.5C 31.5,40.8333 31.5,41.1667 31.5,41.5C 31.5,44.1667 31.5,46.8333 31.5,49.5C 21.572,50.1001 11.9053,49.4334 2.5,47.5C 4.88691,42.3951 7.55358,37.3951 10.5,32.5C 6.62597,30.9975 6.95931,30.3309 11.5,30.5 Z"/></g>
<g><path style="opacity:0.996" fill="#6e8fc5" d="M 31.5,34.5 C 31.5,34.1667 31.5,33.8333 31.5,33.5C 32.1667,33.5 32.8333,33.5 33.5,33.5C 36.1667,33.5 38.8333,33.5 41.5,33.5C 41.5,34.1667 41.5,34.8333 41.5,35.5C 41.1667,35.5 40.8333,35.5 40.5,35.5C 40.1583,34.6618 39.4916,34.3284 38.5,34.5C 36.1667,34.5 33.8333,34.5 31.5,34.5 Z"/></g>
<g><path style="opacity:0.997" fill="#1572f2" d="M 49.5,32.5 C 49.3284,33.4916 49.6618,34.1583 50.5,34.5C 50.7497,36.674 51.7497,38.3406 53.5,39.5C 53.8333,39.5 54.1667,39.5 54.5,39.5C 54.5,39.8333 54.5,40.1667 54.5,40.5C 54.5,41.1667 54.8333,41.5 55.5,41.5C 55.8333,42.8333 56.1667,42.8333 56.5,41.5C 57.4778,41.811 58.1445,42.4777 58.5,43.5C 57.1931,44.865 57.1931,46.1984 58.5,47.5C 58.6716,48.4916 58.3382,49.1583 57.5,49.5C 48.8333,49.5 40.1667,49.5 31.5,49.5C 31.5,46.8333 31.5,44.1667 31.5,41.5C 35.8839,41.8256 40.2172,41.4922 44.5,40.5C 44.3764,39.8933 44.0431,39.56 43.5,39.5C 43.5,39.1667 43.5,38.8333 43.5,38.5C 43.5,37.8333 43.1667,37.5 42.5,37.5C 42.1667,36.8333 41.8333,36.1667 41.5,35.5C 41.5,34.8333 41.5,34.1667 41.5,33.5C 44.2788,33.7214 46.9455,33.388 49.5,32.5 Z"/></g>
<g><path style="opacity:0.02" fill="#293150" d="M 58.5,34.5 C 59.6009,33.4017 60.9343,33.235 62.5,34C 61.2068,34.49 59.8734,34.6567 58.5,34.5 Z"/></g>
<g><path style="opacity:0.09" fill="#3b5283" d="M 50.5,34.5 C 53.1667,34.5 55.8333,34.5 58.5,34.5C 57.1667,35.1667 55.8333,35.8333 54.5,36.5C 54.1667,36.5 53.8333,36.5 53.5,36.5C 52.1667,36.8333 52.1667,37.1667 53.5,37.5C 53.5,37.8333 53.5,38.1667 53.5,38.5C 53.5,38.8333 53.5,39.1667 53.5,39.5C 51.7497,38.3406 50.7497,36.674 50.5,34.5 Z"/></g>
<g><path style="opacity:0.965" fill="#71e3d0" d="M 31.5,34.5 C 33.8333,34.5 36.1667,34.5 38.5,34.5C 38.8417,35.3382 39.5084,35.6716 40.5,35.5C 40.1667,36.1667 39.8333,36.8333 39.5,37.5C 34.0247,38.4889 28.358,38.8222 22.5,38.5C 22.5,38.1667 22.5,37.8333 22.5,37.5C 23.1667,37.5 23.5,37.1667 23.5,36.5C 23.5,36.1667 23.5,35.8333 23.5,35.5C 24.1667,35.5 24.5,35.1667 24.5,34.5C 26.7922,33.3139 29.1256,33.3139 31.5,34.5 Z"/></g>
<g><path style="opacity:0.145" fill="#568798" d="M 39.5,37.5 C 40.5,38.8333 41.5,38.8333 42.5,37.5C 43.1667,37.5 43.5,37.8333 43.5,38.5C 36.5878,39.4621 29.5878,39.7955 22.5,39.5C 22.5,39.1667 22.5,38.8333 22.5,38.5C 28.358,38.8222 34.0247,38.4889 39.5,37.5 Z"/></g>
<g><path style="opacity:0.012" fill="#59aede" d="M 53.5,36.5 C 53.8333,36.5 54.1667,36.5 54.5,36.5C 55.4408,38.0495 56.1075,39.7162 56.5,41.5C 56.1667,41.5 55.8333,41.5 55.5,41.5C 54.8333,41.5 54.5,41.1667 54.5,40.5C 54.5,40.1667 54.5,39.8333 54.5,39.5C 54.5,38.8333 54.1667,38.5 53.5,38.5C 53.5,38.1667 53.5,37.8333 53.5,37.5C 53.5,37.1667 53.5,36.8333 53.5,36.5 Z"/></g>
<g><path style="opacity:0.239" fill="#2e66ba" d="M 43.5,39.5 C 44.0431,39.56 44.3764,39.8933 44.5,40.5C 40.2172,41.4922 35.8839,41.8256 31.5,41.5C 31.5,41.1667 31.5,40.8333 31.5,40.5C 35.7016,40.8168 39.7016,40.4834 43.5,39.5 Z"/></g>
<g><path style="opacity:0.004" fill="#70d3ed" d="M 2.5,47.5 C 2.63101,48.2389 2.46434,48.9056 2,49.5C 1.30831,48.5632 1.47498,47.8966 2.5,47.5 Z"/></g>
<g><path style="opacity:0.004" fill="#3d3f6b" d="M 57.5,50.5 C 57.5,50.1667 57.5,49.8333 57.5,49.5C 58.3382,49.1583 58.6716,48.4916 58.5,47.5C 59.8671,46.1474 60.8671,46.4807 61.5,48.5C 60.2462,48.5675 58.9129,49.2342 57.5,50.5 Z"/></g>
<g><path style="opacity:0.004" fill="#70cfe9" d="M 57.5,50.5 C 57.5,50.8333 57.5,51.1667 57.5,51.5C 42.6572,51.1707 27.9905,51.504 13.5,52.5C 13.1667,52.5 12.8333,52.5 12.5,52.5C 9.69464,51.6805 6.69464,51.1805 3.5,51C 21.4969,50.5001 39.4969,50.3334 57.5,50.5 Z"/></g>
<g><path style="opacity:0.004" fill="#3b2347" d="M 57.5,51.5 C 58.8333,52.1667 58.8333,52.1667 57.5,51.5 Z"/></g>
<g><path style="opacity:0.004" fill="#82fefe" d="M 12.5,52.5 C 11.8333,53.1667 11.8333,53.1667 12.5,52.5 Z"/></g>
<g><path style="opacity:0.012" fill="#5bbce7" d="M 13.5,52.5 C 14.2389,52.369 14.9056,52.5357 15.5,53C 14.5632,53.6917 13.8966,53.525 13.5,52.5 Z"/></g>
<g><path style="opacity:0.012" fill="#53aade" d="M 22.5,53.5 C 23.6009,52.4017 24.9343,52.235 26.5,53C 25.2068,53.49 23.8734,53.6567 22.5,53.5 Z"/></g>
<g><path style="opacity:0.004" fill="#6fdcf3" d="M 34.5,53.5 C 34.8966,52.475 35.5632,52.3083 36.5,53C 35.9056,53.4643 35.2389,53.631 34.5,53.5 Z"/></g>
<g><path style="opacity:0.004" fill="#76c2cd" d="M 44.5,53.5 C 45.2506,52.4265 46.2506,52.2599 47.5,53C 46.552,53.4828 45.552,53.6495 44.5,53.5 Z"/></g>
<g><path style="opacity:0.004" fill="#82fefe" d="M 48.5,53.5 C 49.2506,52.4265 50.2506,52.2599 51.5,53C 50.552,53.4828 49.552,53.6495 48.5,53.5 Z"/></g>
<g><path style="opacity:0.004" fill="#3b2347" d="M 19.5,54.5 C 20.6225,56.2884 20.7891,58.2884 20,60.5C 19.5045,58.5273 19.3379,56.5273 19.5,54.5 Z"/></g>
<g><path style="opacity:0.012" fill="#488cc7" d="M 42.5,54.5 C 43.6291,56.6282 43.7958,58.9615 43,61.5C 42.5034,59.1902 42.3367,56.8568 42.5,54.5 Z"/></g>
<g><path style="opacity:0.012" fill="#488cc7" d="M 52.5,54.5 C 53.6291,56.6282 53.7958,58.9615 53,61.5C 52.5034,59.1902 52.3367,56.8568 52.5,54.5 Z"/></g>
<g><path style="opacity:0.004" fill="#7aeff9" d="M 9.5,54.5 C 10.6225,56.2884 10.7891,58.2884 10,60.5C 9.50454,58.5273 9.33788,56.5273 9.5,54.5 Z"/></g>
<g><path style="opacity:0.004" fill="#82fefe" d="M 17.5,55.5 C 18.8333,56.1667 18.8333,56.1667 17.5,55.5 Z"/></g>
<g><path style="opacity:0.008" fill="#527eb1" d="M 27.5,54.5 C 28.6291,56.6282 28.7958,58.9615 28,61.5C 27.5034,59.1902 27.3367,56.8568 27.5,54.5 Z"/></g>
<g><path style="opacity:0.569" fill="#53a3cf" d="M 44.5,54.5 C 46.1238,54.3601 47.2904,55.0267 48,56.5C 48.7096,55.0267 49.8762,54.3601 51.5,54.5C 51.8076,56.924 51.4742,59.2573 50.5,61.5C 48.674,61.0798 46.674,61.0798 44.5,61.5C 44.5,59.1667 44.5,56.8333 44.5,54.5 Z"/></g>
<g><path style="opacity:0.893" fill="#599cc6" d="M 21.5,54.5 C 23.1667,54.5 24.8333,54.5 26.5,54.5C 26.5,56.8333 26.5,59.1667 26.5,61.5C 24.5714,61.7692 22.9047,61.2692 21.5,60C 21.8541,58.3745 21.8541,56.5412 21.5,54.5 Z"/></g>
<g><path style="opacity:0.864" fill="#5aacd4" d="M 39.5,58.5 C 38.8999,59.9002 37.8999,60.9002 36.5,61.5C 35.4523,59.0673 34.7856,59.0673 34.5,61.5C 33.325,61.719 32.325,61.3857 31.5,60.5C 32.0606,58.5741 32.2273,56.5741 32,54.5C 34,54.5 36,54.5 38,54.5C 39.1882,55.5634 39.6882,56.8967 39.5,58.5 Z M 36.5,61.5 C 35.8333,61.5 35.1667,61.5 34.5,61.5C 34.7856,59.0673 35.4523,59.0673 36.5,61.5 Z"/></g>
<g><path style="opacity:0.825" fill="#5eb7e1" d="M 17.5,56.5 C 18.3029,57.4232 18.4696,58.4232 18,59.5C 16.6976,60.0848 15.531,60.7515 14.5,61.5C 13.5,61.5 12.5,61.5 11.5,61.5C 11.5,59.1667 11.5,56.8333 11.5,54.5C 13.8583,54.2525 15.8583,54.9192 17.5,56.5 Z"/></g>
<g><path style="opacity:0.012" fill="#449ddb" d="M 39.5,58.5 C 40.525,58.8966 40.6917,59.5632 40,60.5C 39.5357,59.9056 39.369,59.2389 39.5,58.5 Z"/></g>
<g><path style="opacity:0.004" fill="#82fefe" d="M 29.5,59.5 C 30.8333,60.1667 30.8333,60.1667 29.5,59.5 Z"/></g>
<g><path style="opacity:0.008" fill="#4583c9" d="M 14.5,61.5 C 15.8333,62.1667 15.8333,62.1667 14.5,61.5 Z"/></g>
<g><path style="opacity:0.008" fill="#4583c9" d="M 11.5,63.5 C 12.209,62.596 13.209,62.2627 14.5,62.5C 14.5,62.8333 14.5,63.1667 14.5,63.5C 13.5,63.5 12.5,63.5 11.5,63.5 Z"/></g>
<g><path style="opacity:0.008" fill="#539ad3" d="M 22.5,63.5 C 23.8333,62.1667 25.1667,62.1667 26.5,63.5C 25.1667,63.5 23.8333,63.5 22.5,63.5 Z"/></g>
<g><path style="opacity:0.008" fill="#4583c9" d="M 33.5,63.5 C 32.8333,62.1667 32.8333,62.1667 33.5,63.5 Z"/></g>
<g><path style="opacity:0.008" fill="#5caadb" d="M 36.5,63.5 C 37.1667,62.1667 37.8333,62.1667 38.5,63.5C 37.8333,63.5 37.1667,63.5 36.5,63.5 Z"/></g>
<g><path style="opacity:0.004" fill="#70d3ed" d="M 44.5,63.5 C 45.1667,62.1667 45.8333,62.1667 46.5,63.5C 45.8333,63.5 45.1667,63.5 44.5,63.5 Z"/></g>
<g><path style="opacity:0.004" fill="#70d3ed" d="M 49.5,63.5 C 50.1667,62.1667 50.8333,62.1667 51.5,63.5C 50.8333,63.5 50.1667,63.5 49.5,63.5 Z"/></g>
</svg>
