<?xml version="1.0" encoding="utf-8"?>
<!-- Generator: Adobe Illustrator 25.0.1, SVG Export Plug-In . SVG Version: 6.00 Build 0)  -->
<svg version="1.0" id="katman_1" xmlns="http://www.w3.org/2000/svg" xmlns:xlink="http://www.w3.org/1999/xlink" x="0px" y="0px"
	 viewBox="0 0 800 600" style="enable-background:new 0 0 800 600;" xml:space="preserve">
<style type="text/css">
	.st0{fill-rule:evenodd;clip-rule:evenodd;fill:#0B76FF;}
	.st1{fill-rule:evenodd;clip-rule:evenodd;fill:#00E3C2;}
	.st2{fill-rule:evenodd;clip-rule:evenodd;fill:#25C0FF;}
	.st3{fill-rule:evenodd;clip-rule:evenodd;fill:#FF51FF;}
</style>
<g>
	<g>
		<g>
			<g>
				<path class="st0" d="M400,88l184.8,318.4H215.2L400,88z M400,193.1L306.3,354h187.3L400,193.1z"/>
				<path class="st1" d="M399.9,512L215.2,193.6h369.6C584.7,193.6,399.9,512,399.9,512z M399.9,406.8L493.6,246H306.3L399.9,406.8
					L399.9,406.8z"/>
			</g>
			<g>
				<path class="st2" d="M293.8,116.5L613,299.8L292.9,484.6L293.8,116.5z M346.3,207.6l-0.7,186.1l162.2-93.6L346.3,207.6z"/>
				<path class="st3" d="M505.7,483.7L186.5,300.4l320.1-184.8C506.6,115.6,505.7,483.7,505.7,483.7z M453.1,392.6l0.7-186.1
					l-162.2,93.6L453.1,392.6L453.1,392.6z"/>
			</g>
		</g>
	</g>
</g>
</svg>
