<?xml version="1.0" encoding="UTF-8"?>
<!DOCTYPE svg PUBLIC "-//W3C//DTD SVG 1.1//EN" "http://www.w3.org/Graphics/SVG/1.1/DTD/svg11.dtd">
<svg xmlns="http://www.w3.org/2000/svg" version="1.1" width="64px" height="64px" style="shape-rendering:geometricPrecision; text-rendering:geometricPrecision; image-rendering:optimizeQuality; fill-rule:evenodd; clip-rule:evenodd" xmlns:xlink="http://www.w3.org/1999/xlink">
<g><path style="opacity:1" fill="#fefefe" d="M -0.5,-0.5 C 20.8333,-0.5 42.1667,-0.5 63.5,-0.5C 63.5,20.8333 63.5,42.1667 63.5,63.5C 59.1667,63.5 54.8333,63.5 50.5,63.5C 48.1663,60.3338 45.3329,57.6671 42,55.5C 41.2086,54.255 40.7086,52.9217 40.5,51.5C 40.5,51.1667 40.5,50.8333 40.5,50.5C 40.8333,49.8333 41.1667,49.1667 41.5,48.5C 47.6221,47.3656 51.9555,44.0323 54.5,38.5C 55.4511,37.0813 55.7845,35.4147 55.5,33.5C 58.3924,30.1032 59.2258,26.1032 58,21.5C 57.6174,20.944 57.1174,20.6107 56.5,20.5C 56.0679,19.2905 55.4013,18.2905 54.5,17.5C 51.8726,13.6847 48.2059,11.6847 43.5,11.5C 42.791,10.596 41.791,10.2627 40.5,10.5C 34.4252,8.32941 28.4252,8.82941 22.5,12C 16.2548,14.6173 10.9215,18.4506 6.5,23.5C 5.44802,23.3505 4.44802,23.5172 3.5,24C 2.61587,25.7198 1.28254,26.8865 -0.5,27.5C -0.5,18.1667 -0.5,8.83333 -0.5,-0.5 Z"/></g>
<g><path style="opacity:1" fill="#281502" d="M 40.5,10.5 C 41.791,10.2627 42.791,10.596 43.5,11.5C 43.5654,11.9382 43.3988,12.2716 43,12.5C 42.0053,11.9341 41.172,11.2674 40.5,10.5 Z"/></g>
<g><path style="opacity:1" fill="#35190e" d="M 53.5,17.5 C 53.8333,17.5 54.1667,17.5 54.5,17.5C 55.4013,18.2905 56.0679,19.2905 56.5,20.5C 54.8564,20.1898 53.8564,19.1898 53.5,17.5 Z"/></g>
<g><path style="opacity:1" fill="#f68b08" d="M 40.5,10.5 C 41.172,11.2674 42.0053,11.9341 43,12.5C 43.3988,12.2716 43.5654,11.9382 43.5,11.5C 48.2059,11.6847 51.8726,13.6847 54.5,17.5C 54.1667,17.5 53.8333,17.5 53.5,17.5C 49.4979,16.2403 45.4979,16.2403 41.5,17.5C 39.2224,15.7775 36.7224,14.4441 34,13.5C 23.2969,14.7047 18.1302,20.7047 18.5,31.5C 18.9028,34.4855 19.9028,37.1522 21.5,39.5C 24.2605,44.7179 28.5938,47.7179 34.5,48.5C 36.3024,49.4582 38.3024,50.1249 40.5,50.5C 40.5,50.8333 40.5,51.1667 40.5,51.5C 39.6906,52.4687 38.6906,53.3021 37.5,54C 32.7804,54.7168 28.1138,54.5502 23.5,53.5C 23.5,51.8333 23.5,50.1667 23.5,48.5C 19.5483,47.7279 15.5483,47.3946 11.5,47.5C 5.06958,42.3736 2.90292,35.7069 5,27.5C 5.79142,26.255 6.29142,24.9217 6.5,23.5C 10.9215,18.4506 16.2548,14.6173 22.5,12C 28.4252,8.82941 34.4252,8.32941 40.5,10.5 Z"/></g>
<g><path style="opacity:1" fill="#252523" d="M 6.5,23.5 C 6.29142,24.9217 5.79142,26.255 5,27.5C 2.90292,35.7069 5.06958,42.3736 11.5,47.5C 11.6199,49.7345 11.2865,51.9011 10.5,54C 11.0556,55.0111 11.7222,55.8444 12.5,56.5C 7.31724,55.5347 2.98391,56.868 -0.5,60.5C -0.5,49.5 -0.5,38.5 -0.5,27.5C 1.28254,26.8865 2.61587,25.7198 3.5,24C 4.44802,23.5172 5.44802,23.3505 6.5,23.5 Z"/></g>
<g><path style="opacity:1" fill="#804609" d="M 21.5,39.5 C 19.9028,37.1522 18.9028,34.4855 18.5,31.5C 19.7498,31.4226 20.5831,30.756 21,29.5C 21.8333,31.6667 23.3333,33.1667 25.5,34C 23.5359,35.451 22.2026,37.2843 21.5,39.5 Z"/></g>
<g><path style="opacity:1" fill="#7a4b1b" d="M 55.5,33.5 C 55.7845,35.4147 55.4511,37.0813 54.5,38.5C 53.7101,37.2058 52.7101,36.0391 51.5,35C 52.9007,34.5899 54.234,34.0899 55.5,33.5 Z"/></g>
<g><path style="opacity:1" fill="#beb193" d="M 53.5,17.5 C 53.8564,19.1898 54.8564,20.1898 56.5,20.5C 57.1174,20.6107 57.6174,20.944 58,21.5C 59.2258,26.1032 58.3924,30.1032 55.5,33.5C 54.234,34.0899 52.9007,34.5899 51.5,35C 52.7101,36.0391 53.7101,37.2058 54.5,38.5C 51.9555,44.0323 47.6221,47.3656 41.5,48.5C 39.1667,48.5 36.8333,48.5 34.5,48.5C 28.5938,47.7179 24.2605,44.7179 21.5,39.5C 22.2026,37.2843 23.5359,35.451 25.5,34C 23.3333,33.1667 21.8333,31.6667 21,29.5C 20.5831,30.756 19.7498,31.4226 18.5,31.5C 18.1302,20.7047 23.2969,14.7047 34,13.5C 36.7224,14.4441 39.2224,15.7775 41.5,17.5C 45.4979,16.2403 49.4979,16.2403 53.5,17.5 Z"/></g>
<g><path style="opacity:1" fill="#8c4f0d" d="M 41.5,40.5 C 42.675,40.719 43.675,40.3857 44.5,39.5C 42.2351,38.3526 39.9018,38.1859 37.5,39C 38.7911,40.2917 38.7911,41.4583 37.5,42.5C 35.4559,41.9688 33.7893,40.8022 32.5,39C 34.3333,36.5 36.5,34.3333 39,32.5C 40.113,33.7604 40.2797,34.927 39.5,36C 41.6846,35.8124 43.6846,35.6457 45.5,35.5C 49.7435,38.5339 49.4102,41.0339 44.5,43C 41.457,43.8625 40.457,43.0291 41.5,40.5 Z"/></g>
<g><path style="opacity:1" fill="#141212" d="M 39.5,28.5 C 39.7148,30.1788 39.0481,31.1788 37.5,31.5C 37.9321,30.2905 38.5987,29.2905 39.5,28.5 Z"/></g>
<g><path style="opacity:1" fill="#fcfcfb" d="M 43.5,24.5 C 44.7024,27.7037 47.0358,30.0371 50.5,31.5C 53.546,30.1062 55.8793,28.1062 57.5,25.5C 55.3583,33.0031 51.1916,34.6698 45,30.5C 44.187,28.5643 43.687,26.5643 43.5,24.5 Z"/></g>
<g><path style="opacity:1" fill="#181717" d="M 57.5,25.5 C 55.8793,28.1062 53.546,30.1062 50.5,31.5C 47.0358,30.0371 44.7024,27.7037 43.5,24.5C 46.1834,22.7191 49.1834,22.2191 52.5,23C 51.3966,24.6804 51.7299,26.1804 53.5,27.5C 53.8333,26.1667 54.1667,24.8333 54.5,23.5C 55.7387,23.9424 56.7387,24.6091 57.5,25.5 Z"/></g>
<g><path style="opacity:1" fill="#fafbfa" d="M 37.5,22.5 C 39.2798,23.9899 39.9465,25.9899 39.5,28.5C 38.5987,29.2905 37.9321,30.2905 37.5,31.5C 28.2302,35.5367 22.8969,32.87 21.5,23.5C 23.024,25.4079 24.3574,27.5746 25.5,30C 32.718,32.7693 35.718,30.436 34.5,23C 35.448,22.5172 36.448,22.3505 37.5,22.5 Z"/></g>
<g><path style="opacity:1" fill="#0e0d0d" d="M 37.5,22.5 C 36.448,22.3505 35.448,22.5172 34.5,23C 35.718,30.436 32.718,32.7693 25.5,30C 24.3574,27.5746 23.024,25.4079 21.5,23.5C 26.7552,21.476 32.0885,21.1427 37.5,22.5 Z"/></g>
<g><path style="opacity:1" fill="#f8f8f8" d="M 31.5,24.5 C 32.1894,23.2264 33.0228,23.2264 34,24.5C 34.6987,26.0738 34.3654,27.4071 33,28.5C 32.79,26.9419 32.29,25.6085 31.5,24.5 Z"/></g>
<g><path style="opacity:1" fill="#f0f0f0" d="M 25.5,23.5 C 27.3442,24.2039 27.8442,25.5372 27,27.5C 25.8118,26.4366 25.3118,25.1033 25.5,23.5 Z"/></g>
<g><path style="opacity:1" fill="#1a110f" d="M 41.5,40.5 C 40.1411,41.0065 39.1411,42.0065 38.5,43.5C 37.8933,43.3764 37.56,43.0431 37.5,42.5C 38.7911,41.4583 38.7911,40.2917 37.5,39C 39.9018,38.1859 42.2351,38.3526 44.5,39.5C 43.675,40.3857 42.675,40.719 41.5,40.5 Z"/></g>
<g><path style="opacity:1" fill="#8aa3a6" d="M 11.5,47.5 C 15.5483,47.3946 19.5483,47.7279 23.5,48.5C 23.5,50.1667 23.5,51.8333 23.5,53.5C 22.2046,54.0306 21.5379,55.3639 21.5,57.5C 19.3862,58.784 18.3862,60.784 18.5,63.5C 17.1667,63.5 15.8333,63.5 14.5,63.5C 17.4904,60.137 16.8238,57.8037 12.5,56.5C 11.7222,55.8444 11.0556,55.0111 10.5,54C 11.2865,51.9011 11.6199,49.7345 11.5,47.5 Z"/></g>
<g><path style="opacity:1" fill="#301605" d="M 34.5,48.5 C 36.8333,48.5 39.1667,48.5 41.5,48.5C 41.1667,49.1667 40.8333,49.8333 40.5,50.5C 38.3024,50.1249 36.3024,49.4582 34.5,48.5 Z"/></g>
<g><path style="opacity:1" fill="#232523" d="M 40.5,51.5 C 40.7086,52.9217 41.2086,54.255 42,55.5C 45.3329,57.6671 48.1663,60.3338 50.5,63.5C 44.1667,63.5 37.8333,63.5 31.5,63.5C 28.4656,60.9836 25.1323,58.9836 21.5,57.5C 21.5379,55.3639 22.2046,54.0306 23.5,53.5C 28.1138,54.5502 32.7804,54.7168 37.5,54C 38.6906,53.3021 39.6906,52.4687 40.5,51.5 Z"/></g>
<g><path style="opacity:1" fill="#ee870c" d="M 12.5,56.5 C 16.8238,57.8037 17.4904,60.137 14.5,63.5C 9.5,63.5 4.5,63.5 -0.5,63.5C -0.5,62.5 -0.5,61.5 -0.5,60.5C 2.98391,56.868 7.31724,55.5347 12.5,56.5 Z"/></g>
<g><path style="opacity:1" fill="#ed8910" d="M 21.5,57.5 C 25.1323,58.9836 28.4656,60.9836 31.5,63.5C 27.1667,63.5 22.8333,63.5 18.5,63.5C 18.3862,60.784 19.3862,58.784 21.5,57.5 Z"/></g>
</svg>
