<?xml version="1.0" encoding="UTF-8"?>
<!DOCTYPE svg PUBLIC "-//W3C//DTD SVG 1.1//EN" "http://www.w3.org/Graphics/SVG/1.1/DTD/svg11.dtd">
<svg xmlns="http://www.w3.org/2000/svg" version="1.1" width="120px" height="120px" style="shape-rendering:geometricPrecision; text-rendering:geometricPrecision; image-rendering:optimizeQuality; fill-rule:evenodd; clip-rule:evenodd" xmlns:xlink="http://www.w3.org/1999/xlink">
<g><path style="opacity:0.999" fill="#143ea6" d="M 82.5,11.5 C 81.8333,11.5 81.5,11.8333 81.5,12.5C 78.7545,11.5308 75.9212,10.8641 73,10.5C 60.4288,12.3715 48.5955,16.3715 37.5,22.5C 34.1185,25.2148 31.1185,28.2148 28.5,31.5C 28.1667,31.5 27.8333,31.5 27.5,31.5C 27.5,30.8333 27.1667,30.5 26.5,30.5C 25.603,29.4019 24.7697,29.4019 24,30.5C 23.0793,29.2917 22.5793,27.9584 22.5,26.5C 22.3893,25.8826 22.056,25.3826 21.5,25C 28.7416,22.222 34.075,17.3887 37.5,10.5C 36.8111,8.47773 35.4778,7.1444 33.5,6.5C 34.0511,3.91036 35.3845,3.24369 37.5,4.5C 38.5934,2.23031 40.0934,1.89697 42,3.5C 45.3719,2.06481 48.8719,1.06481 52.5,0.5C 56.1281,1.06481 59.6281,2.06481 63,3.5C 64.9066,1.89697 66.4066,2.23031 67.5,4.5C 68.086,4.29069 68.586,3.95735 69,3.5C 69.6667,4.83333 70.6667,5.83333 72,6.5C 73.164,6.83461 74.4974,6.83461 76,6.5C 76.4419,8.67854 77.4419,9.3452 79,8.5C 80.5185,9.16337 81.6851,10.1634 82.5,11.5 Z"/></g>
<g><path style="opacity:0.973" fill="#5390f3" d="M 33.5,6.5 C 35.4778,7.1444 36.8111,8.47773 37.5,10.5C 34.075,17.3887 28.7416,22.222 21.5,25C 22.056,25.3826 22.3893,25.8826 22.5,26.5C 21.8333,26.5 21.1667,26.5 20.5,26.5C 20.1667,25.1667 19.8333,25.1667 19.5,26.5C 17.27,27.3498 14.9367,28.3498 12.5,29.5C 11.8333,28.1667 11.1667,28.1667 10.5,29.5C 8.5,30.1667 6.5,30.8333 4.5,31.5C 3.85762,26.5573 5.85762,22.724 10.5,20C 10.1667,19.6667 9.83333,19.3333 9.5,19C 12,16.5 14.5,14 17,11.5C 17.3333,11.8333 17.6667,12.1667 18,12.5C 19.6667,11.2668 21.1667,9.9335 22.5,8.5C 23.7449,7.39816 25.0783,6.39816 26.5,5.5C 28.7466,6.37422 31.0799,6.70755 33.5,6.5 Z"/></g>
<g><path style="opacity:0.012" fill="#658fe6" d="M 22.5,8.5 C 21.8333,7.16667 21.8333,7.16667 22.5,8.5 Z"/></g>
<g><path style="opacity:0.994" fill="#5492f5" d="M 81.5,12.5 C 82.1667,12.5 82.5,12.1667 82.5,11.5C 85.157,14.5935 88.157,17.4268 91.5,20C 91.1667,20.3333 90.8333,20.6667 90.5,21C 91.5,21.3333 92.5,21.6667 93.5,22C 92.3659,23.016 92.6992,23.6827 94.5,24C 94.1667,24.3333 93.8333,24.6667 93.5,25C 96.4467,26.2233 97.4467,28.2233 96.5,31C 98.9171,32.1437 99.5838,33.8103 98.5,36C 99.1667,36.3333 99.8333,36.6667 100.5,37C 99.6634,38.0113 99.33,39.1779 99.5,40.5C 87.8539,42.6077 76.1872,44.6077 64.5,46.5C 64.5,48.1667 64.5,49.8333 64.5,51.5C 64.5,52.8333 64.5,54.1667 64.5,55.5C 64.1667,55.5 63.8333,55.5 63.5,55.5C 63.6602,53.8008 63.4935,52.1341 63,50.5C 62.1072,51.7112 61.2739,51.7112 60.5,50.5C 61.325,49.6143 62.325,49.281 63.5,49.5C 63.5,48.5 63.5,47.5 63.5,46.5C 52.9693,48.6001 42.3026,49.6001 31.5,49.5C 30.6016,48.8423 29.6016,48.1757 28.5,47.5C 27.3595,46.5745 27.3595,45.7412 28.5,45C 27.8333,44.3333 27.1667,43.6667 26.5,43C 26.1896,38.8908 26.1896,34.7241 26.5,30.5C 27.1667,30.5 27.5,30.8333 27.5,31.5C 27.8333,32.8333 28.1667,32.8333 28.5,31.5C 31.1185,28.2148 34.1185,25.2148 37.5,22.5C 48.5955,16.3715 60.4288,12.3715 73,10.5C 75.9212,10.8641 78.7545,11.5308 81.5,12.5 Z"/></g>
<g><path style="opacity:0.012" fill="#658fe6" d="M 19.5,26.5 C 19.8333,26.5 20.1667,26.5 20.5,26.5C 20.3147,27.1701 19.9813,27.1701 19.5,26.5 Z"/></g>
<g><path style="opacity:0.012" fill="#658fe6" d="M 10.5,29.5 C 11.1667,29.5 11.8333,29.5 12.5,29.5C 11.8333,30.8333 11.1667,30.8333 10.5,29.5 Z"/></g>
<g><path style="opacity:0.983" fill="#5490f2" d="M 8.5,40.5 C 9.93614,41.4286 11.2695,42.5952 12.5,44C 12.1667,44.3333 11.8333,44.6667 11.5,45C 12.7588,45.9234 14.0921,46.7568 15.5,47.5C 16.6405,48.4255 16.6405,49.2588 15.5,50C 17.751,50.7475 19.0844,52.2475 19.5,54.5C 19.5,54.8333 19.5,55.1667 19.5,55.5C 19.8333,58.1667 20.1667,58.1667 20.5,55.5C 20.8333,55.5 21.1667,55.5 21.5,55.5C 21.7038,58.5176 22.0371,61.5176 22.5,64.5C 23.5,64.5 24.5,64.5 25.5,64.5C 25.0298,66.7277 24.0298,68.0611 22.5,68.5C 22.7282,70.3969 23.7282,71.7303 25.5,72.5C 24.7261,73.7112 23.8928,73.7112 23,72.5C 22.5065,74.1341 22.3398,75.8008 22.5,77.5C 23.675,77.281 24.675,77.6143 25.5,78.5C 24.7261,79.7112 23.8928,79.7112 23,78.5C 22.5172,79.448 22.3505,80.448 22.5,81.5C 21.5655,82.5676 21.2322,83.901 21.5,85.5C 21.5,87.1667 21.5,88.8333 21.5,90.5C 21.5,91.5 21.5,92.5 21.5,93.5C 20.8333,93.5 20.5,93.8333 20.5,94.5C 15.5107,90.7403 11.0107,86.407 7,81.5C 5.4558,79.5318 4.28913,77.3651 3.5,75C 4.63411,73.984 4.30077,73.3173 2.5,73C 3.64692,70.9154 2.98025,69.4154 0.5,68.5C 2.09162,66.7751 1.75828,65.7751 -0.5,65.5C -0.5,64.8333 -0.5,64.1667 -0.5,63.5C 0.833333,62.5 0.833333,61.5 -0.5,60.5C -0.5,54.8333 -0.5,49.1667 -0.5,43.5C 0.833333,42.5 0.833333,41.5 -0.5,40.5C -0.5,39.5 -0.5,38.5 -0.5,37.5C 1.64769,37.6106 1.98103,36.944 0.5,35.5C 2.18745,34.432 3.85412,34.5986 5.5,36C 6.52818,37.6316 7.52818,39.1316 8.5,40.5 Z"/></g>
<g><path style="opacity:0.012" fill="#658fe6" d="M 8.5,39.5 C 9.83333,40.1667 9.83333,40.1667 8.5,39.5 Z"/></g>
<g><path style="opacity:1" fill="#d32c2b" d="M 110.5,46.5 C 105.218,45.4332 99.8851,45.2665 94.5,46C 84.4943,47.945 74.4943,49.7783 64.5,51.5C 64.5,49.8333 64.5,48.1667 64.5,46.5C 76.1872,44.6077 87.8539,42.6077 99.5,40.5C 102.448,40.7771 105.281,40.4438 108,39.5C 109.825,41.4796 110.659,43.8129 110.5,46.5 Z"/></g>
<g><path style="opacity:1" fill="#f6eff0" d="M 110.5,46.5 C 110.5,48.1667 110.5,49.8333 110.5,51.5C 110.167,51.5 109.833,51.5 109.5,51.5C 105.477,49.5024 101.144,49.0024 96.5,50C 85.8594,51.9967 75.1927,53.83 64.5,55.5C 64.5,54.1667 64.5,52.8333 64.5,51.5C 74.4943,49.7783 84.4943,47.945 94.5,46C 99.8851,45.2665 105.218,45.4332 110.5,46.5 Z"/></g>
<g><path style="opacity:1" fill="#d72f2d" d="M 109.5,51.5 C 109.5,52.8333 109.5,54.1667 109.5,55.5C 94.2993,54.707 79.2993,56.3737 64.5,60.5C 64.5,58.8333 64.5,57.1667 64.5,55.5C 75.1927,53.83 85.8594,51.9967 96.5,50C 101.144,49.0024 105.477,49.5024 109.5,51.5 Z"/></g>
<g><path style="opacity:0.012" fill="#4e1c28" d="M 21.5,51.5 C 21.5,52.8333 21.5,54.1667 21.5,55.5C 21.1667,55.5 20.8333,55.5 20.5,55.5C 20.1667,55.5 19.8333,55.5 19.5,55.5C 19.5,55.1667 19.5,54.8333 19.5,54.5C 20.1667,53.5 20.8333,52.5 21.5,51.5 Z"/></g>
<g><path style="opacity:1" fill="#f7f1f1" d="M 109.5,55.5 C 109.5,57.1667 109.5,58.8333 109.5,60.5C 105.477,58.5024 101.144,58.0024 96.5,59C 85.8126,60.7883 75.1459,62.6216 64.5,64.5C 64.5,63.1667 64.5,61.8333 64.5,60.5C 79.2993,56.3737 94.2993,54.707 109.5,55.5 Z"/></g>
<g><path style="opacity:1" fill="#838fd5" d="M 64.5,60.5 C 64.5,61.8333 64.5,63.1667 64.5,64.5C 59.4701,63.8071 59.4701,62.4738 64.5,60.5 Z"/></g>
<g><path style="opacity:1" fill="#d7312e" d="M 109.5,60.5 C 109.5,61.8333 109.5,63.1667 109.5,64.5C 104.25,63.3852 98.9167,63.2185 93.5,64C 83.8187,65.7519 74.152,67.5852 64.5,69.5C 64.5,67.8333 64.5,66.1667 64.5,64.5C 75.1459,62.6216 85.8126,60.7883 96.5,59C 101.144,58.0024 105.477,58.5024 109.5,60.5 Z"/></g>
<g><path style="opacity:1" fill="#2638b2" d="M 63.5,55.5 C 63.8333,55.5 64.1667,55.5 64.5,55.5C 64.5,57.1667 64.5,58.8333 64.5,60.5C 59.4701,62.4738 59.4701,63.8071 64.5,64.5C 64.5,66.1667 64.5,67.8333 64.5,69.5C 64.5,70.8333 64.5,72.1667 64.5,73.5C 64.5,74.8333 64.5,76.1667 64.5,77.5C 50.7312,79.8004 36.7312,81.1337 22.5,81.5C 22.3505,80.448 22.5172,79.448 23,78.5C 23.8928,79.7112 24.7261,79.7112 25.5,78.5C 24.675,77.6143 23.675,77.281 22.5,77.5C 22.3398,75.8008 22.5065,74.1341 23,72.5C 23.8928,73.7112 24.7261,73.7112 25.5,72.5C 23.7282,71.7303 22.7282,70.3969 22.5,68.5C 24.0298,68.0611 25.0298,66.7277 25.5,64.5C 24.5,64.5 23.5,64.5 22.5,64.5C 22.0371,61.5176 21.7038,58.5176 21.5,55.5C 21.5,54.1667 21.5,52.8333 21.5,51.5C 21.3932,49.6214 21.8932,49.2881 23,50.5C 23.5194,49.4844 24.3527,48.8178 25.5,48.5C 27.4534,49.1556 29.4534,49.4889 31.5,49.5C 42.3026,49.6001 52.9693,48.6001 63.5,46.5C 63.5,47.5 63.5,48.5 63.5,49.5C 62.325,49.281 61.325,49.6143 60.5,50.5C 61.2739,51.7112 62.1072,51.7112 63,50.5C 63.4935,52.1341 63.6602,53.8008 63.5,55.5 Z"/></g>
<g><path style="opacity:1" fill="#efefee" d="M 34.5,61.5 C 36.337,61.6395 36.6704,62.3061 35.5,63.5C 34.7025,63.0431 34.3691,62.3764 34.5,61.5 Z"/></g>
<g><path style="opacity:1" fill="#bec4e5" d="M 56.5,60.5 C 56.5,60.1667 56.5,59.8333 56.5,59.5C 59.0973,58.5972 59.5973,59.2639 58,61.5C 57.6174,60.944 57.1174,60.6107 56.5,60.5 Z"/></g>
<g><path style="opacity:1" fill="#c4c7da" d="M 22.5,59.5 C 23.3864,58.2241 24.3864,58.2241 25.5,59.5C 24.5754,60.5624 23.5754,60.5624 22.5,59.5 Z"/></g>
<g><path style="opacity:1" fill="#c0c7e3" d="M 38.5,58.5 C 40.337,58.6395 40.6704,59.3061 39.5,60.5C 38.7025,60.0431 38.3691,59.3764 38.5,58.5 Z"/></g>
<g><path style="opacity:1" fill="#e0e1eb" d="M 30.5,59.5 C 31.2506,58.4265 32.2506,58.2599 33.5,59C 32.6477,60.7284 31.6477,60.895 30.5,59.5 Z"/></g>
<g><path style="opacity:1" fill="#5961c6" d="M 52.5,51.5 C 53.1667,51.5 53.5,51.8333 53.5,52.5C 55.463,53.1684 57.463,53.5017 59.5,53.5C 57.7256,54.1867 56.0589,55.0201 54.5,56C 55.8146,57.3946 55.4812,58.3946 53.5,59C 54.448,59.4828 55.448,59.6495 56.5,59.5C 56.5,59.8333 56.5,60.1667 56.5,60.5C 54.5337,61.2545 54.2004,62.4212 55.5,64C 54.5838,64.3742 53.7504,64.8742 53,65.5C 53.2626,64.0494 53.0959,62.7161 52.5,61.5C 50.8988,62.1654 49.3988,62.4988 48,62.5C 47.6667,61.5 47.3333,60.5 47,59.5C 45.0253,60.7495 43.8586,62.0828 43.5,63.5C 42.6143,62.675 42.281,61.675 42.5,60.5C 43.5,60.5 44.5,60.5 45.5,60.5C 45.5,59.5 45.5,58.5 45.5,57.5C 48.6412,59.2862 51.3079,58.7862 53.5,56C 52.3224,55.0331 50.989,54.5331 49.5,54.5C 50.9935,53.8589 51.9935,52.8589 52.5,51.5 Z"/></g>
<g><path style="opacity:1" fill="#cfd5eb" d="M 63.5,55.5 C 62.8595,57.332 61.8595,57.6653 60.5,56.5C 61.325,55.6143 62.325,55.281 63.5,55.5 Z"/></g>
<g><path style="opacity:1" fill="#ced2e7" d="M 35.5,54.5 C 36.7759,55.3864 36.7759,56.3864 35.5,57.5C 34.4376,56.5754 34.4376,55.5754 35.5,54.5 Z"/></g>
<g><path style="opacity:1" fill="#e2dee6" d="M 27.5,55.5 C 30.0009,55.5109 30.1676,56.1776 28,57.5C 27.5357,56.9056 27.369,56.2389 27.5,55.5 Z"/></g>
<g><path style="opacity:1" fill="#9eaadb" d="M 38.5,52.5 C 40.337,52.6395 40.6704,53.3061 39.5,54.5C 38.7025,54.0431 38.3691,53.3764 38.5,52.5 Z"/></g>
<g><path style="opacity:1" fill="#9da4d4" d="M 31.5,52.5 C 33.337,52.6395 33.6704,53.3061 32.5,54.5C 31.7025,54.0431 31.3691,53.3764 31.5,52.5 Z"/></g>
<g><path style="opacity:1" fill="#c6c9d7" d="M 23.5,52.5 C 25.337,52.6395 25.6704,53.3061 24.5,54.5C 23.7025,54.0431 23.3691,53.3764 23.5,52.5 Z"/></g>
<g><path style="opacity:1" fill="#b1bae2" d="M 52.5,51.5 C 53.3864,50.2241 54.3864,50.2241 55.5,51.5C 55.0431,52.2975 54.3764,52.6309 53.5,52.5C 53.5,51.8333 53.1667,51.5 52.5,51.5 Z"/></g>
<g><path style="opacity:1" fill="#d4d5e3" d="M 30.5,65.5 C 31.2506,64.4265 32.2506,64.2599 33.5,65C 32.6477,66.7284 31.6477,66.895 30.5,65.5 Z"/></g>
<g><path style="opacity:1" fill="#afb7e1" d="M 45.5,63.5 C 49.1331,63.443 49.2998,64.443 46,66.5C 45.5172,65.552 45.3505,64.552 45.5,63.5 Z"/></g>
<g><path style="opacity:1" fill="#f6f0ef" d="M 109.5,64.5 C 109.5,66.1667 109.5,67.8333 109.5,69.5C 105.477,67.5024 101.144,67.0024 96.5,68C 85.8026,69.7895 75.1359,71.6228 64.5,73.5C 64.5,72.1667 64.5,70.8333 64.5,69.5C 74.152,67.5852 83.8187,65.7519 93.5,64C 98.9167,63.2185 104.25,63.3852 109.5,64.5 Z"/></g>
<g><path style="opacity:0.004" fill="#3b3d62" d="M 109.5,51.5 C 109.833,51.5 110.167,51.5 110.5,51.5C 110.351,52.552 110.517,53.552 111,54.5C 112.5,55.3333 113.667,56.5 114.5,58C 112.773,59.3894 111.439,61.0561 110.5,63C 111.434,68.7849 111.768,74.6182 111.5,80.5C 110.833,79.5 110.167,78.5 109.5,77.5C 109.5,76.1667 109.5,74.8333 109.5,73.5C 109.5,72.1667 109.5,70.8333 109.5,69.5C 109.5,67.8333 109.5,66.1667 109.5,64.5C 109.5,63.1667 109.5,61.8333 109.5,60.5C 109.5,58.8333 109.5,57.1667 109.5,55.5C 109.5,54.1667 109.5,52.8333 109.5,51.5 Z"/></g>
<g><path style="opacity:1" fill="#c8cee6" d="M 38.5,64.5 C 40.337,64.6395 40.6704,65.3061 39.5,66.5C 38.7025,66.0431 38.3691,65.3764 38.5,64.5 Z"/></g>
<g><path style="opacity:1" fill="#cdd3ea" d="M 57.5,64.5 C 59.7602,65.2376 59.9269,66.2376 58,67.5C 57.5172,66.552 57.3505,65.552 57.5,64.5 Z"/></g>
<g><path style="opacity:1" fill="#e9e9ec" d="M 34.5,67.5 C 36.337,67.6395 36.6704,68.3061 35.5,69.5C 34.7025,69.0431 34.3691,68.3764 34.5,67.5 Z"/></g>
<g><path style="opacity:1" fill="#b3bce2" d="M 49.5,66.5 C 51.337,66.6395 51.6704,67.3061 50.5,68.5C 49.7025,68.0431 49.3691,67.3764 49.5,66.5 Z"/></g>
<g><path style="opacity:1" fill="#9aa2d2" d="M 27.5,67.5 C 29.2252,67.8425 29.7252,68.8425 29,70.5C 27.9614,69.7562 27.4614,68.7562 27.5,67.5 Z"/></g>
<g><path style="opacity:1" fill="#d7312e" d="M 109.5,69.5 C 109.5,70.8333 109.5,72.1667 109.5,73.5C 104.25,72.3852 98.9167,72.2185 93.5,73C 83.875,74.8273 74.2083,76.3273 64.5,77.5C 64.5,76.1667 64.5,74.8333 64.5,73.5C 75.1359,71.6228 85.8026,69.7895 96.5,68C 101.144,67.0024 105.477,67.5024 109.5,69.5 Z"/></g>
<g><path style="opacity:1" fill="#b4b8dc" d="M 30.5,70.5 C 31.5,70.5 32.5,70.5 33.5,70.5C 33.6495,71.552 33.4828,72.552 33,73.5C 32.3333,72.1667 31.6667,72.1667 31,73.5C 30.5172,72.552 30.3505,71.552 30.5,70.5 Z"/></g>
<g><path style="opacity:1" fill="#c7cde4" d="M 37.5,71.5 C 38.3864,70.2241 39.3864,70.2241 40.5,71.5C 39.5754,72.5624 38.5754,72.5624 37.5,71.5 Z"/></g>
<g><path style="opacity:1" fill="#d7dceb" d="M 49.5,72.5 C 51.337,72.6395 51.6704,73.3061 50.5,74.5C 49.7025,74.0431 49.3691,73.3764 49.5,72.5 Z"/></g>
<g><path style="opacity:1" fill="#f3eeef" d="M 109.5,73.5 C 109.5,74.8333 109.5,76.1667 109.5,77.5C 103.095,76.1166 96.7614,76.4499 90.5,78.5C 78.5251,80.442 66.5251,82.2753 54.5,84C 43.5213,85.0077 32.5213,85.5077 21.5,85.5C 21.2322,83.901 21.5655,82.5676 22.5,81.5C 36.7312,81.1337 50.7312,79.8004 64.5,77.5C 74.2083,76.3273 83.875,74.8273 93.5,73C 98.9167,72.2185 104.25,72.3852 109.5,73.5 Z"/></g>
<g><path style="opacity:1" fill="#eae9ed" d="M 34.5,73.5 C 36.337,73.6395 36.6704,74.3061 35.5,75.5C 34.7025,75.0431 34.3691,74.3764 34.5,73.5 Z"/></g>
<g><path style="opacity:1" fill="#c2c9e6" d="M 60.5,74.5 C 63.7973,74.3287 64.1306,74.9954 61.5,76.5C 60.7025,76.0431 60.3691,75.3764 60.5,74.5 Z"/></g>
<g><path style="opacity:1" fill="#bdc5e6" d="M 52.5,76.5 C 53.3864,75.2241 54.3864,75.2241 55.5,76.5C 54.5754,77.5624 53.5754,77.5624 52.5,76.5 Z"/></g>
<g><path style="opacity:1" fill="#b4b9db" d="M 31.5,76.5 C 33.6246,77.3676 33.7913,78.3676 32,79.5C 30.3167,78.8235 30.1501,77.8235 31.5,76.5 Z"/></g>
<g><path style="opacity:1" fill="#bec4e3" d="M 45.5,76.5 C 47.337,76.6395 47.6704,77.3061 46.5,78.5C 45.7025,78.0431 45.3691,77.3764 45.5,76.5 Z"/></g>
<g><path style="opacity:1" fill="#d52b29" d="M 90.5,78.5 C 87.5505,80.1153 84.8838,82.1153 82.5,84.5C 62.274,87.46 41.9407,89.46 21.5,90.5C 21.5,88.8333 21.5,87.1667 21.5,85.5C 32.5213,85.5077 43.5213,85.0077 54.5,84C 66.5251,82.2753 78.5251,80.442 90.5,78.5 Z"/></g>
<g><path style="opacity:1" fill="#f5eeee" d="M 82.5,84.5 C 81.396,86.3885 80.0627,88.0552 78.5,89.5C 59.6684,92.8891 40.6684,94.5558 21.5,94.5C 21.5,94.1667 21.5,93.8333 21.5,93.5C 21.5,92.5 21.5,91.5 21.5,90.5C 41.9407,89.46 62.274,87.46 82.5,84.5 Z"/></g>
<g><path style="opacity:1" fill="#6a1d46" d="M 109.5,77.5 C 110.167,78.5 110.833,79.5 111.5,80.5C 113.167,82.5 114.833,84.5 116.5,86.5C 113.891,87.4431 111.891,89.1097 110.5,91.5C 109.728,90.3065 108.728,89.3065 107.5,88.5C 105.81,86.6583 103.81,85.325 101.5,84.5C 104.303,84.0387 106.637,82.7053 108.5,80.5C 109.404,79.791 109.737,78.791 109.5,77.5 Z"/></g>
<g><path style="opacity:1" fill="#d6284b" d="M 109.5,77.5 C 109.737,78.791 109.404,79.791 108.5,80.5C 105.184,78.0895 101.517,77.4229 97.5,78.5C 90.546,83.6197 84.3793,89.6197 79,96.5C 78.5172,95.552 78.3505,94.552 78.5,93.5C 78.9258,91.8612 78.9258,90.5279 78.5,89.5C 80.0627,88.0552 81.396,86.3885 82.5,84.5C 84.8838,82.1153 87.5505,80.1153 90.5,78.5C 96.7614,76.4499 103.095,76.1166 109.5,77.5 Z"/></g>
<g><path style="opacity:1" fill="#b9244c" d="M 108.5,80.5 C 106.637,82.7053 104.303,84.0387 101.5,84.5C 90.1667,84.5 84.5,90.1667 84.5,101.5C 83.1667,103.5 81.5,105.167 79.5,106.5C 78.8333,105.5 78.1667,104.5 77.5,103.5C 77.5,101.833 77.5,100.167 77.5,98.5C 77.5,96.8333 77.5,95.1667 77.5,93.5C 77.8333,93.5 78.1667,93.5 78.5,93.5C 78.3505,94.552 78.5172,95.552 79,96.5C 84.3793,89.6197 90.546,83.6197 97.5,78.5C 101.517,77.4229 105.184,78.0895 108.5,80.5 Z"/></g>
<g><path style="opacity:1" fill="#b6627c" d="M 101.5,84.5 C 103.81,85.325 105.81,86.6583 107.5,88.5C 106.957,88.56 106.624,88.8933 106.5,89.5C 107.952,90.9397 108.952,92.6064 109.5,94.5C 108.833,94.1667 108.167,93.8333 107.5,93.5C 105.643,92.2463 103.643,92.2463 101.5,93.5C 101.167,92.8333 100.833,92.1667 100.5,91.5C 96.8518,93.7934 95.0185,97.1268 95,101.5C 94.1872,93.8328 93.5205,94.1661 93,102.5C 92.6174,101.944 92.1174,101.611 91.5,101.5C 90.6981,102.952 90.1981,104.618 90,106.5C 88.8873,105.695 87.7206,105.028 86.5,104.5C 85.8333,103.5 85.1667,102.5 84.5,101.5C 84.5,90.1667 90.1667,84.5 101.5,84.5 Z"/></g>
<g><path style="opacity:1" fill="#d42b29" d="M 78.5,89.5 C 78.9258,90.5279 78.9258,91.8612 78.5,93.5C 78.1667,93.5 77.8333,93.5 77.5,93.5C 58.6599,96.8191 39.6599,98.8191 20.5,99.5C 20.5,97.8333 20.5,96.1667 20.5,94.5C 20.8333,94.5 21.1667,94.5 21.5,94.5C 40.6684,94.5558 59.6684,92.8891 78.5,89.5 Z"/></g>
<g><path style="opacity:1" fill="#f3edee" d="M 77.5,93.5 C 77.5,95.1667 77.5,96.8333 77.5,98.5C 58.6485,101.818 39.6485,103.485 20.5,103.5C 20.5,102.167 20.5,100.833 20.5,99.5C 39.6599,98.8191 58.6599,96.8191 77.5,93.5 Z"/></g>
<g><path style="opacity:1" fill="#451b44" d="M 107.5,93.5 C 108.167,93.8333 108.833,94.1667 109.5,94.5C 110.833,97.1667 110.833,99.8333 109.5,102.5C 108.5,103.167 107.5,103.833 106.5,104.5C 103.62,104.967 101.287,104.134 99.5,102C 101.654,98.6791 104.321,95.8458 107.5,93.5 Z"/></g>
<g><path style="opacity:0.962" fill="#22163f" d="M 116.5,86.5 C 117.692,88.1131 118.692,89.7798 119.5,91.5C 119.5,96.1667 119.5,100.833 119.5,105.5C 117.902,108.495 115.902,111.329 113.5,114C 113.833,114.333 114.167,114.667 114.5,115C 111.16,116.003 108.16,117.503 105.5,119.5C 100.833,119.5 96.1667,119.5 91.5,119.5C 89.5,118.167 87.5,116.833 85.5,115.5C 87.2181,113.777 88.5514,111.777 89.5,109.5C 95.2469,113.479 100.914,113.479 106.5,109.5C 112.542,104.594 113.875,98.594 110.5,91.5C 111.891,89.1097 113.891,87.4431 116.5,86.5 Z"/></g>
<g><path style="opacity:1" fill="#dbd6de" d="M 107.5,88.5 C 108.728,89.3065 109.728,90.3065 110.5,91.5C 113.875,98.594 112.542,104.594 106.5,109.5C 105.957,109.44 105.624,109.107 105.5,108.5C 107.278,106.736 108.611,104.736 109.5,102.5C 110.833,99.8333 110.833,97.1667 109.5,94.5C 108.952,92.6064 107.952,90.9397 106.5,89.5C 106.624,88.8933 106.957,88.56 107.5,88.5 Z"/></g>
<g><path style="opacity:1" fill="#d12625" d="M 77.5,98.5 C 77.5,100.167 77.5,101.833 77.5,103.5C 64.6586,104.913 51.9919,106.58 39.5,108.5C 35.8333,108.5 32.1667,108.5 28.5,108.5C 26.5328,108.261 24.6995,108.594 23,109.5C 22.5339,107.648 21.7006,105.648 20.5,103.5C 39.6485,103.485 58.6485,101.818 77.5,98.5 Z"/></g>
<g><path style="opacity:1" fill="#703054" d="M 107.5,93.5 C 104.321,95.8458 101.654,98.6791 99.5,102C 101.287,104.134 103.62,104.967 106.5,104.5C 103.152,106.255 99.6518,107.922 96,109.5C 93.6587,108.993 93.1587,107.826 94.5,106C 92.6243,105.082 91.6243,103.582 91.5,101.5C 92.1174,101.611 92.6174,101.944 93,102.5C 93.5205,94.1661 94.1872,93.8328 95,101.5C 95.0185,97.1268 96.8518,93.7934 100.5,91.5C 100.833,92.1667 101.167,92.8333 101.5,93.5C 103.643,92.2463 105.643,92.2463 107.5,93.5 Z"/></g>
<g><path style="opacity:1" fill="#6e0001" d="M 77.5,103.5 C 78.1667,104.5 78.8333,105.5 79.5,106.5C 79.5,107.167 79.5,107.833 79.5,108.5C 66.1667,108.5 52.8333,108.5 39.5,108.5C 51.9919,106.58 64.6586,104.913 77.5,103.5 Z"/></g>
<g><path style="opacity:1" fill="#846b85" d="M 91.5,101.5 C 91.6243,103.582 92.6243,105.082 94.5,106C 93.1587,107.826 93.6587,108.993 96,109.5C 99.6518,107.922 103.152,106.255 106.5,104.5C 107.5,103.833 108.5,103.167 109.5,102.5C 108.611,104.736 107.278,106.736 105.5,108.5C 105.624,109.107 105.957,109.44 106.5,109.5C 100.914,113.479 95.2469,113.479 89.5,109.5C 88.075,108.078 87.075,106.411 86.5,104.5C 87.7206,105.028 88.8873,105.695 90,106.5C 90.1981,104.618 90.6981,102.952 91.5,101.5 Z"/></g>
<g><path style="opacity:0.118" fill="#12090f" d="M 28.5,108.5 C 32.1667,108.5 35.8333,108.5 39.5,108.5C 52.8333,108.5 66.1667,108.5 79.5,108.5C 80.6005,109.605 81.2671,110.938 81.5,112.5C 71.1052,112.161 60.7718,111.161 50.5,109.5C 46.1821,110.018 41.8487,110.351 37.5,110.5C 34.0866,110.483 31.0866,109.816 28.5,108.5 Z"/></g>
<g><path style="opacity:1" fill="#721e46" d="M 84.5,101.5 C 85.1667,102.5 85.8333,103.5 86.5,104.5C 87.075,106.411 88.075,108.078 89.5,109.5C 88.5514,111.777 87.2181,113.777 85.5,115.5C 84.1283,114.488 82.795,113.488 81.5,112.5C 81.2671,110.938 80.6005,109.605 79.5,108.5C 79.5,107.833 79.5,107.167 79.5,106.5C 81.5,105.167 83.1667,103.5 84.5,101.5 Z"/></g>
</svg>
